<svg xmlns="http://www.w3.org/2000/svg" width="32" height="32" viewBox="0 0 32 32">
  <defs>
    <linearGradient id="g" x1="0" y1="0" x2="1" y2="1">
      <stop offset="0%" stop-color="#326ce5"/>
      <stop offset="50%" stop-color="#38bdf8"/>
      <stop offset="100%" stop-color="#06b6d4"/>
    </linearGradient>
  </defs>
  <!-- Location pin shape -->
  <path d="M16 1C9.4 1 4 6.1 4 12.3c0 8.5 10.3 17.5 11.2 18.3a1.2 1.2 0 0 0 1.6 0C17.7 29.8 28 20.8 28 12.3 28 6.1 22.6 1 16 1z" fill="url(#g)"/>
  <!-- Kubernetes helm wheel (simplified) -->
  <circle cx="16" cy="12" r="3" fill="none" stroke="#fff" stroke-width="1.5"/>
  <line x1="16" y1="5.5" x2="16" y2="8.5" stroke="#fff" stroke-width="1.5" stroke-linecap="round"/>
  <line x1="16" y1="15.5" x2="16" y2="18.5" stroke="#fff" stroke-width="1.5" stroke-linecap="round"/>
  <line x1="10.4" y1="8.8" x2="12.9" y2="10.3" stroke="#fff" stroke-width="1.5" stroke-linecap="round"/>
  <line x1="19.1" y1="13.7" x2="21.6" y2="15.2" stroke="#fff" stroke-width="1.5" stroke-linecap="round"/>
  <line x1="21.6" y1="8.8" x2="19.1" y2="10.3" stroke="#fff" stroke-width="1.5" stroke-linecap="round"/>
  <line x1="12.9" y1="13.7" x2="10.4" y2="15.2" stroke="#fff" stroke-width="1.5" stroke-linecap="round"/>
  <!-- Spokes end dots -->
  <circle cx="16" cy="5.5" r="1.2" fill="#fff"/>
  <circle cx="16" cy="18.5" r="1.2" fill="#fff"/>
  <circle cx="10.4" cy="8.8" r="1.2" fill="#fff"/>
  <circle cx="21.6" cy="15.2" r="1.2" fill="#fff"/>
  <circle cx="21.6" cy="8.8" r="1.2" fill="#fff"/>
  <circle cx="10.4" cy="15.2" r="1.2" fill="#fff"/>
</svg>
